HIERARCHY
ROOT Hips
{
	OFFSET 0.000000 0.000000 0.000000
	CHANNELS 6 Xposition Yposition Zposition Zrotation Yrotation Xrotation 
	JOINT LeftUpLeg_virtual
	{
		OFFSET 0.000000 0.000000 0.000000
		CHANNELS 3 Zrotation Yrotation Xrotation
		JOINT LeftUpLeg
		{
			OFFSET 10.205400 -3.823500 0.155100
			CHANNELS 3 Zrotation Yrotation Xrotation
			JOINT LeftLeg
			{
				OFFSET 0.708757 -12.982077 0.567790
				CHANNELS 3 Zrotation Yrotation Xrotation
				JOINT LeftFoot
				{
					OFFSET -0.708756 -10.717838 -2.184338
					CHANNELS 3 Zrotation Yrotation Xrotation
					JOINT LeftToeBase
					{
						OFFSET 0.108149 -7.191104 7.560241
						CHANNELS 3 Zrotation Yrotation Xrotation
						End Site
						{
							OFFSET 0.000000 0.000000 0.000000
						}
					}
				}
			}
		}
	}
	JOINT RightUpLeg_virtual
	{
		OFFSET 0.000000 0.000000 0.000000
		CHANNELS 3 Zrotation Yrotation Xrotation
		JOINT RightUpLeg
		{
			OFFSET -10.205400 -3.823500 0.005500
			CHANNELS 3 Zrotation Yrotation Xrotation
			JOINT RightLeg
			{
				OFFSET -0.708756 -12.982134 0.610632
				CHANNELS 3 Zrotation Yrotation Xrotation
				JOINT RightFoot
				{
					OFFSET 0.708754 -10.717769 -1.945823
					CHANNELS 3 Zrotation Yrotation Xrotation
					JOINT RightToeBase
					{
						OFFSET -0.108140 -7.191069 7.372968
						CHANNELS 3 Zrotation Yrotation Xrotation
						End Site
						{
							OFFSET 0.000000 0.000000 0.000000
						}
					}
				}
			}
		}
	}
	JOINT Spine_virtual
	{
		OFFSET 0.000000 0.000000 0.000000
		CHANNELS 3 Zrotation Yrotation Xrotation
		JOINT Spine
		{
			OFFSET 0.000000 6.876099 0.125700
			CHANNELS 3 Zrotation Yrotation Xrotation
			JOINT Spine1
			{
				OFFSET 0.000000 8.022060 0.146608
				CHANNELS 3 Zrotation Yrotation Xrotation
				JOINT Spine2
				{
					OFFSET 0.000000 9.168068 0.167552
					CHANNELS 3 Zrotation Yrotation Xrotation
					JOINT Neck_virtual
					{
						OFFSET 0.000000 0.000000 0.000000
						CHANNELS 3 Zrotation Yrotation Xrotation
						JOINT Neck
						{
							OFFSET 0.000000 10.314075 0.188496
							CHANNELS 3 Zrotation Yrotation Xrotation
							JOINT Head
							{
								OFFSET 0.000000 7.643700 -2.377400
								CHANNELS 3 Zrotation Yrotation Xrotation
								End Site
								{
									OFFSET 0.000000 0.000000 0.000000
								}
							}
						}
					}
					JOINT LeftShoulder_virtual
					{
						OFFSET 0.000000 0.000000 0.000000
						CHANNELS 3 Zrotation Yrotation Xrotation
						JOINT LeftShoulder
						{
							OFFSET 4.392200 8.824978 0.174984
							CHANNELS 3 Zrotation Yrotation Xrotation
							JOINT LeftArm
							{
								OFFSET 8.771219 -2.981674 -0.026999
								CHANNELS 3 Zrotation Yrotation Xrotation
								JOINT LeftForeArm
								{
									OFFSET 8.512804 0.000000 -0.000000
									CHANNELS 3 Zrotation Yrotation Xrotation
									JOINT LeftHand
									{
										OFFSET 18.484802 0.000000 -0.000000
										CHANNELS 3 Zrotation Yrotation Xrotation
										End Site
										{
											OFFSET 0.000000 0.000000 0.000000
										}
									}
								}
							}
						}
					}
					JOINT RightShoulder_virtual
					{
						OFFSET 0.000000 0.000000 0.000000
						CHANNELS 3 Zrotation Yrotation Xrotation
						JOINT RightShoulder
						{
							OFFSET -4.392200 8.824993 0.141379
							CHANNELS 3 Zrotation Yrotation Xrotation
							JOINT RightArm
							{
								OFFSET -8.771282 -2.981682 -0.094208
								CHANNELS 3 Zrotation Yrotation Xrotation
								JOINT RightForeArm
								{
									OFFSET -8.494598 0.000000 0.000000
									CHANNELS 3 Zrotation Yrotation Xrotation
									JOINT RightHand
									{
										OFFSET -18.483803 0.000000 0.000001
										CHANNELS 3 Zrotation Yrotation Xrotation
										End Site
										{
											OFFSET 0.000000 0.000000 0.000000
										}
									}
								}
							}
						}
					}
				}
			}
		}
	}
}
MOTION
Frames: 10
Frame Time: 0.033333
6.504370 36.532574 11.639268 179.995921 1.152639 -179.983326 -1.718849 -3.848454 9.617604 -4.514498 -4.011099 -16.643231 7.422976 6.799667 15.203426 -4.100331 -1.102844 8.541449 0.000000 0.000000 0.000000 3.218627 -2.195338 7.506637 -5.328732 3.908227 -12.547440 -6.793656 1.798535 16.546089 8.066943 3.934347 7.814850 0.000000 0.000000 0.000000 1.310099 -0.241918 -2.364814 -5.274662 4.013933 -3.365184 0.062191 -2.737690 2.196871 0.028785 0.040289 0.035471 -0.550294 -0.925955 4.050116 0.528323 -2.210950 5.667370 0.000000 0.000000 0.000000 0.783037 -0.099026 1.501992 4.802408 -2.523813 -4.838198 -9.838328 23.458954 -37.353977 -0.279569 -43.119975 -5.490671 0.000000 0.000000 0.000000 -2.385580 0.518612 0.979087 5.840850 -9.867333 -7.264378 21.867356 -29.610762 -36.466687 -1.260710 37.276222 -4.589688 0.000000 0.000000 0.000000 
6.505996 36.542580 11.627104 179.867308 1.086026 -179.921553 -1.623358 -3.799007 9.572327 -4.758134 -4.193969 -16.763461 7.177329 7.511189 15.564946 -4.419512 -1.404519 7.785243 0.000000 0.000000 0.000000 3.167295 -2.209215 7.581252 -5.331918 3.536220 -12.444859 -6.905473 1.323270 16.797319 7.635874 3.527607 7.968800 0.000000 0.000000 0.000000 1.239718 -0.330082 -2.402426 -5.343117 3.941909 -3.378640 -0.002127 -2.794689 2.205873 0.000732 -0.028825 0.048069 -0.507431 -0.879157 4.062219 0.587645 -2.170709 5.609242 0.000000 0.000000 0.000000 0.803884 -0.014207 1.460580 4.802404 -2.462627 -4.661834 -9.869272 23.506070 -37.528959 -0.440088 -43.152859 -5.337028 0.000000 0.000000 0.000000 -2.317360 0.608128 1.090830 5.904996 -9.767761 -7.420131 21.831610 -29.552623 -36.488175 -1.178938 37.303416 -4.439745 0.000000 0.000000 0.000000 
6.510853 36.542892 11.614556 179.886187 1.099789 -179.920857 -1.610742 -3.783610 9.588162 -4.745816 -4.198989 -16.802142 7.166665 7.494286 15.623113 -4.431422 -1.423352 7.731204 0.000000 0.000000 0.000000 3.184389 -2.170151 7.595736 -5.313202 3.536592 -12.446684 -6.900319 1.290056 16.803606 7.619013 3.525203 7.980427 0.000000 0.000000 0.000000 1.229589 -0.278826 -2.393857 -5.333678 3.952548 -3.360963 0.023372 -2.780316 2.222711 0.007329 -0.005469 0.051769 -0.553058 -1.117689 4.061950 0.611068 -2.249608 5.643572 0.000000 0.000000 0.000000 0.804000 -0.059470 1.491761 4.792637 -2.511205 -4.662855 -9.864627 23.471890 -37.353861 -0.203441 -43.091459 -5.566654 0.000000 0.000000 0.000000 -2.339199 0.527669 1.082463 5.931616 -9.822681 -7.424210 21.892746 -29.535206 -36.381880 -1.324038 37.279603 -4.617147 0.000000 0.000000 0.000000 
6.514504 36.544044 11.601656 179.840056 1.127456 -179.899970 -1.659460 -3.798376 9.635643 -4.722776 -4.215518 -16.839707 7.173346 7.529034 15.644999 -4.427054 -1.434761 7.721794 0.000000 0.000000 0.000000 3.160236 -2.157171 7.598480 -5.314114 3.510146 -12.433898 -6.897983 1.273181 16.840345 7.627551 3.491977 7.955659 0.000000 0.000000 0.000000 1.208623 -0.293455 -2.398052 -5.354967 3.944299 -3.351133 0.016071 -2.758998 2.238684 0.016921 -0.000499 0.054642 -0.529211 -0.886925 4.083399 0.589706 -2.196346 5.664480 0.000000 0.000000 0.000000 0.803018 -0.075061 1.455529 4.787792 -2.479504 -4.624795 -9.860455 23.486645 -37.431834 -0.357304 -43.102383 -5.426782 0.000000 0.000000 0.000000 -2.329749 0.545951 1.065658 5.972820 -9.822411 -7.368231 21.996742 -29.539325 -36.538903 -1.295857 37.273493 -4.600664 0.000000 0.000000 0.000000 
6.517786 36.542397 11.590075 179.810618 1.146146 -179.955868 -1.691005 -3.768688 9.649691 -4.711036 -4.203677 -16.802622 7.170280 7.509035 15.683858 -4.412069 -1.430418 7.692562 0.000000 0.000000 0.000000 3.109911 -2.149812 7.612569 -5.301252 3.548376 -12.401996 -6.915217 1.272380 16.824557 7.641991 3.506685 7.959591 0.000000 0.000000 0.000000 1.163409 -0.282409 -2.359797 -5.392099 3.957630 -3.322580 0.017000 -2.731286 2.273964 0.036853 0.031717 0.041641 -0.515553 -0.910786 4.119051 0.606357 -2.193428 5.744806 0.000000 0.000000 0.000000 0.798045 -0.089142 1.562067 4.781131 -2.513199 -4.840655 -9.886298 23.511697 -37.404155 -0.412044 -43.079499 -5.380307 0.000000 0.000000 0.000000 -2.336554 0.507325 1.059027 6.028947 -9.878065 -7.274379 22.021133 -29.579360 -36.465280 -1.339387 37.214525 -4.616845 0.000000 0.000000 0.000000 
6.519353 36.541908 11.582508 179.828267 1.146609 -179.920980 -1.693367 -3.733012 9.627075 -4.686150 -4.212308 -16.864323 7.162559 7.482841 15.855287 -4.410661 -1.452904 7.573102 0.000000 0.000000 0.000000 3.127915 -2.160302 7.599992 -5.285909 3.556809 -12.384963 -6.915793 1.258316 16.809941 7.638204 3.482277 7.974321 0.000000 0.000000 0.000000 1.175473 -0.281186 -2.366596 -5.369315 3.945840 -3.324492 0.024194 -2.710889 2.289301 0.009192 0.043446 0.028380 -0.493460 -0.946773 4.149294 0.609232 -2.190976 5.778800 0.000000 0.000000 0.000000 0.826993 -0.088162 1.602767 4.786956 -2.497370 -4.894613 -9.925724 23.517047 -37.359164 -0.420248 -43.035574 -5.390507 0.000000 0.000000 0.000000 -2.301494 0.512918 1.073565 6.082102 -9.885295 -7.281717 22.090266 -29.609177 -36.474235 -1.394053 37.182536 -4.798898 0.000000 0.000000 0.000000 
6.519442 36.541046 11.577886 179.824524 1.156862 -179.952084 -1.674952 -3.809136 9.680160 -4.695172 -4.205800 -16.777151 7.154797 7.583610 15.701459 -4.394112 -1.447809 7.688275 0.000000 0.000000 0.000000 3.119673 -2.177731 7.605469 -5.278795 3.584720 -12.363448 -6.942559 1.279656 16.780730 7.666255 3.508008 7.961868 0.000000 0.000000 0.000000 1.160124 -0.187599 -2.310047 -5.381699 3.844455 -3.297827 0.014607 -2.802210 2.314795 0.010174 -0.059232 0.049891 -0.472076 -0.879496 4.176405 0.632814 -2.170877 5.931358 0.000000 0.000000 0.000000 0.849121 -0.012137 1.523096 4.756532 -2.454688 -4.635833 -9.976591 23.651381 -37.354260 -0.354730 -42.988261 -5.433033 0.000000 0.000000 0.000000 -2.265847 0.601023 1.125166 6.138000 -9.804349 -7.359820 22.075603 -29.663208 -36.460533 -1.312764 37.150259 -4.522286 0.000000 0.000000 0.000000 
6.518522 36.540203 11.571664 179.837037 1.118422 -179.958723 -1.704582 -3.824213 9.658086 -4.674787 -4.208712 -16.833836 7.149166 7.533250 15.858859 -4.384991 -1.470629 7.552655 0.000000 0.000000 0.000000 3.131082 -2.211616 7.611511 -5.291319 3.578681 -12.364928 -6.943194 1.256808 16.771475 7.666822 3.498049 7.956930 0.000000 0.000000 0.000000 1.143563 -0.351011 -2.294508 -5.346470 3.867258 -3.316308 0.045136 -2.733542 2.329929 0.012407 -0.003377 0.039928 -0.494665 -0.808700 4.175608 0.624054 -2.171932 6.010164 0.000000 0.000000 0.000000 0.823007 -0.020279 1.554471 4.730863 -2.498418 -4.617562 -10.030391 23.664312 -37.200250 -0.360270 -42.945815 -5.411342 0.000000 0.000000 0.000000 -2.287758 0.500726 1.164988 6.164757 -9.728903 -7.348135 22.117177 -29.730686 -36.469293 -1.385386 37.141756 -4.599078 0.000000 0.000000 0.000000 
6.514554 36.539101 11.564582 179.846626 1.114170 -179.872444 -1.707895 -3.809374 9.637438 -4.660014 -4.200466 -16.921401 7.152588 7.487170 15.992581 -4.358923 -1.472218 7.468617 0.000000 0.000000 0.000000 3.139515 -2.210838 7.598376 -5.302468 3.566484 -12.403472 -6.922525 1.233100 16.771673 7.670628 3.500502 7.954560 0.000000 0.000000 0.000000 1.129224 -0.373319 -2.311490 -5.324076 3.853358 -3.366849 0.055713 -2.716754 2.344983 0.007526 -0.006357 0.049587 -0.483587 -0.765054 4.192645 0.628746 -2.160255 6.091480 0.000000 0.000000 0.000000 0.841224 0.070031 1.621570 4.687026 -2.611401 -4.589983 -10.040443 23.648499 -37.004978 -0.268052 -42.904844 -5.456137 0.000000 0.000000 0.000000 -2.269844 0.643210 1.161532 6.193485 -9.793092 -7.298373 22.159750 -29.783504 -36.572801 -1.311140 37.142097 -4.519165 0.000000 0.000000 0.000000 
6.509347 36.537117 11.561852 179.907948 1.192454 -179.894096 -1.644705 -3.775645 9.698868 -4.659607 -4.181660 -17.014807 7.145795 7.472170 16.016906 -4.343413 -1.471346 7.437518 0.000000 0.000000 0.000000 3.198180 -2.154668 7.601896 -5.315706 3.535401 -12.413059 -6.926208 1.271033 16.817398 7.686619 3.536789 7.951798 0.000000 0.000000 0.000000 1.162427 -0.355069 -2.247843 -5.258290 3.869432 -3.383362 0.067818 -2.689056 2.362591 -0.020866 0.009943 0.019744 -0.457896 -0.786156 4.247472 0.637696 -2.150756 6.279864 0.000000 0.000000 0.000000 0.851410 0.017480 1.615557 4.627747 -2.596205 -4.468338 -10.095522 23.668506 -36.827676 -0.290604 -42.816072 -5.399709 0.000000 0.000000 0.000000 -2.258926 0.640306 1.226349 6.218178 -9.815983 -7.301519 22.146825 -29.838084 -36.490265 -1.347105 37.117598 -4.578615 0.000000 0.000000 0.000000 
